<?xml version="1.0" encoding="utf-8"?>
<!-- Generator: Adobe Illustrator 21.0.0, SVG Export Plug-In . SVG Version: 6.00 Build 0)  -->
<svg version="1.1" id="Capa_1" xmlns="http://www.w3.org/2000/svg" xmlns:xlink="http://www.w3.org/1999/xlink" x="0px" y="0px"
	 viewBox="0 0 1366 768" style="enable-background:new 0 0 1366 768;" xml:space="preserve">
<style type="text/css">
	.st0{fill:#000099;}
	.st1{fill:#99FF00;}
	.st2{fill:#FFFF00;}
	.st3{font-family:'ArialNarrow-Italic';}
	.st4{font-size:102.1765px;}
	.st5{letter-spacing:4;}
</style>
<g>
	<path class="st0" d="M823.1,480.5H542.9c-24.2,0-43.9-19.8-43.9-43.9V331.4c0-24.2,19.8-43.9,43.9-43.9H823
		c24.2,0,43.9,19.8,43.9,43.9v105.1C867,460.7,847.2,480.5,823.1,480.5z"/>
	<g>
		<g>
			<path class="st1" d="M696,359.5c0-0.4,0-0.9,0-1.3c0.7-1.1,1.2-2.3,2.1-3.2c1.4-1.7,3.1-2.1,5.1-1.3c1.9,0.8,3.2,1.9,4.3,3.6
				c0.5,0.9,0.9,1.9,0.9,2.8c-0.2,2.6-1.5,4.2-4.3,4.2s-4.9-0.9-6.8-2.8C696.7,360.9,696.3,360.1,696,359.5z"/>
			<path class="st1" d="M742.3,441.7c-0.3,0-0.9-0.2-1.2-0.2c-0.9-0.6-1.2-1.3-0.9-2.5c0.2-0.6,0.3-1.1,0.5-1.5
				c2.4-4.7,4.8-9.5,7.2-14.2c0,0,0.2-0.2,0.3-0.2c-0.2,0.9-0.3,1.9-0.5,2.6c-0.5,3.6-1.2,7.2-1.7,10.6c-0.2,0.9-0.5,1.9-0.9,2.6
				C744.6,440.5,743.5,441.3,742.3,441.7z"/>
			<path class="st1" d="M803.5,375.3c0,0.6,0,0.9-0.2,1.5c-0.7,0.9-1.2,1.1-2,0.6c-2.6-1.3-5.3-1.1-8-0.6c-1,0.2-2.2,0.4-3.2,0.6
				c0.2,0,0.2-0.2,0.3-0.2c2.9-1.1,5.8-2.3,8.7-3.4c0.9-0.4,1.9-0.6,2.7-0.2C802.6,373.7,803,374.5,803.5,375.3z"/>
			<path class="st1" d="M759,337c0.3,0,0.7,0,1-0.2c0.5,0.2,1,0.4,1.4,0.8c0.5,0.4,1,0.9,1.2,1.5c0.7,1.5-0.3,3-1.9,3
				c-1.4,0-2.4-0.6-3.4-1.5c-0.5-0.6-0.7-1.3-0.2-1.9C757.8,338.2,758.5,337.6,759,337z"/>
			<path class="st1" d="M758.1,355.8c0,0.8,0.2,1.5,0.2,2.3c0.2,1.3,0.3,2.6,0.7,3.8c0.2,0.9,0.9,1.9,1.7,2.4
				c0.9,0.6,1.9,0.8,2.8,0.2s1.7-1.1,2.4-2.1c1.9-2.3,3.6-4.5,5.5-6.8c1.4-1.5,2.6-3.2,4-4.7c0.5-0.6,1.2-1.1,1.9-1.5
				c0.9-0.6,1.5-0.4,2.2,0.2s0.9,1.3,0.5,2.1c-0.3,0.9-0.9,2.1-1.4,2.8c-1.5,2.1-3.1,4-4.6,5.8c-1.2,1.5-2.6,3.2-3.8,4.7
				c-0.5,0.8-1,1.7-1.4,2.4c-0.3,0.9,0.3,1.9,1.4,1.9c0.5,0,1.2-0.2,1.7-0.6c0.9-0.6,1.7-1.3,2.6-2.1c1-0.8,1.9-1.7,2.9-2.4
				c1-0.8,1.9-0.8,2.6,0c0.9,0.8,0.9,1.7,0.2,2.8c-0.5,0.8-1.2,1.5-1.9,2.1c-0.9,0.8-1.7,1.5-2.4,2.3c-0.3,0.4-0.7,0.8-1,1.1
				c-1.2,1.7-0.7,3.4,1,4.1c1,0.6,2.4,0.8,3.6,0.9c2.1,0,4.1-0.2,6-0.4c0.3,0,0.5,0,0.9,0v0.5c-0.3,0.2-0.8,0.4-1.2,0.6
				c-1.5,0.6-3,0.9-4.5,1.5c-0.8,0.4-1.7,0.7-2.5,1.3c-0.5,0.4-0.8,0.7-1.2,1.3c-0.7,1.1-0.3,2.2,1,2.8c1.3,0.4,2.7,0.7,4.2,0.7
				c2.4,0.2,4.7,0.2,7.2,0.4c2,0.2,4,0.4,6.1,0.6c0.5,0,0.8,0.2,1.3,0.4c1,0.6,1.2,1.9,0,2.4c-1,0.4-2,0.7-3,0.7c-2.4,0-4.9,0-7.2,0
				c-2.5,0-4.9,0-7.4,0c-0.3,0-0.8,0.2-1.2,0.2c-1.8,0.6-2.5,1.7-2,3.5c0.3,1.3,1.2,2.2,2.2,3c0.8,0.7,1.8,1.3,2.7,2.2
				c-0.3,0-0.5,0-0.8-0.2c-1.2-0.4-2.5-0.7-3.7-1.1c-1.2-0.2-2.4-0.2-3.4,0.2c-1.2,0.6-1.7,1.3-1.2,2.6c0.3,1.3,0.7,2.4,1.3,3.5
				c2.2,4.1,4.5,8.2,6.9,12.3c1.5,2.8,3.2,5.8,4.7,8.6c0.5,1.1,0.8,2.2,1.2,3.5c0.2,0.6,0,1.1-0.5,1.5s-1.2,0.4-1.7,0
				c-0.7-0.4-1.2-0.9-1.7-1.5c-1-1.3-1.8-2.6-2.9-3.9c-0.7-0.9-1.5-1.9-2.5-2.8c-0.7-0.7-1.5-0.9-2.5-0.4c-0.7,0.4-1.3,0.2-1.8-0.4
				c-0.7-0.7-1.3-1.5-1.8-2.2c-1-1.7-2-3.5-3-5.2c-0.7-1.3-1.5-2.4-2.5-3.5c-0.8-0.9-1.7-1.3-3-1.1c-1.2,0.4-1.7,0-2-0.9
				c-0.5-1.7-2-2.4-3.7-1.5c-0.7,0.4-1.3,0.9-1.8,1.7c-1.5,2.1-2.5,4.5-3.2,6.7c-0.3,1.1-0.7,2.2-1,3.2c0,0.2-0.2,0.4-0.2,0.4h-1
				c0-0.4,0-0.9,0-1.3c0.3-2.4,0.7-4.7,0.9-7.2c0-1.1,0-2.3-0.3-3.4c-0.5-1.9-2.1-2.4-3.8-1.3c-1,0.8-1.7,1.7-2.6,2.6
				c-1.2,1.7-2.4,3.4-3.8,4.9c-0.7,0.9-1.5,1.9-2.4,2.6c-0.5,0.4-1,0.9-1.7,1.1c-1.2,0.6-2.2-0.4-2.1-1.7c0.2-0.8,0.5-1.5,1-2.3
				c1-1.5,2.2-3,3.3-4.5c0.9-1.3,1.7-2.6,2.6-4c0.3-0.6,0.5-1.1,0.7-1.9c0.3-1.1-0.2-2.1-1.4-2.4c-1.4-0.4-2.6-0.2-4,0
				c-2.9,0.8-5.8,1.9-8.4,3.4c-0.2,0.2-0.5,0.2-0.7,0.2c0.2-0.2,0.3-0.4,0.7-0.4c1.9-1.5,4-3,5.8-4.7c0.9-0.8,1.5-1.7,2.1-2.6
				c1-1.9,0.3-3.2-1.7-3.4c-2.2-0.4-4.5,0-6.5,0.2c-3.1,0.4-6.4,0.8-9.5,1.1c-1,0.2-2.1,0-3.1-0.2c-0.3,0-0.7-0.2-0.9-0.4
				c-1-0.6-1-1.7,0-2.3c1-0.6,2.2-0.9,3.4-1.1c3.1-0.6,6.2-0.9,9.3-1.3c1.5-0.2,3.3-0.6,4.8-0.9c0.5-0.2,0.9-0.4,1.4-0.6
				c1.2-0.8,1.5-1.9,0.3-2.8c-0.7-0.6-1.4-1.1-2.1-1.3c-2.2-0.8-4.5-1.5-6.7-2.3c-1-0.4-2.2-0.8-3.3-1.3c-0.5-0.2-1-0.8-1.5-1.1
				c-0.5-0.6-0.5-1.1-0.2-1.7s0.9-0.8,1.4-0.8c0.9,0,1.7,0.2,2.6,0.4c2.2,0.6,4.5,1.3,6.7,2.1c1,0.2,2.2,0.4,3.3,0.4
				c1,0,1.5-0.6,1.7-1.5c0-0.9-0.2-1.9-0.3-2.8c-0.7-2.1-2.1-4-3.3-5.7c-1-1.3-2.2-2.8-3.3-4.1c0.2,0.2,0.3,0.4,0.5,0.6
				c1.7,1.3,3.3,2.8,5,4.1c0.7,0.6,1.5,1.1,2.4,1.3c2.2,0.9,4-0.2,4.1-2.6c0-1.1-0.3-2.3-0.9-3.2c-0.5-0.9-1-1.7-1.5-2.4
				c0.7,0.6,1.5,1.1,2.4,1.7c1.2,0.8,2.6,1.3,4,1.5c2.1,0,3.1-0.8,3.1-2.8c0-2.6-0.7-4.9-1-7.5c-0.5-2.4-0.9-4.9-1.4-7.3
				c-0.2-0.8,0-1.5,0.2-2.3c0.2-0.6,0.5-0.9,1.2-1.1s1.2,0.2,1.4,0.8c0.5,0.8,1,1.7,1.2,2.6c0.7,3,1.4,6,2.1,8.9
				c0.3,1.5,0.9,3,1.4,4.5c1,2.3,2.8,2.3,4.3,0.8c1.5-1.3,1.9-3.2,2.2-5.1c0.2-0.6,0.2-1.3,0.3-1.9
				C757.9,355.8,757.9,355.8,758.1,355.8z"/>
			<path class="st1" d="M735.2,361.4c-0.5-0.8-1.2-1.3-1.5-2.1c-2.6-4.4-6.1-7.9-10.2-11c-0.9-0.8-1.5-1.5-2.2-2.5
				c-1.2-1.9-0.7-4,1-5.1s3.7-0.9,4.9,0.6c0.3,0.6,0.7,1.1,1,1.7c2.4,6.1,4.6,12.1,7,18.2C735.2,361.1,735.2,361.3,735.2,361.4
				L735.2,361.4z"/>
			<path class="st1" d="M782.5,400.6c1,0.8,2,1.3,3.2,2.1c2.4,1.3,4.6,2.6,7,3.8c1.7,0.8,3.6,1.1,5.5,1.1c0.7,0,1.5,0,2.2,0.2
				c1.9,0.6,2.7,1.9,2.4,3.8c-0.2,1.1-0.9,2.1-1.9,2.8c-1.4,0.9-2.9,1.1-4.3,0c-0.3-0.2-0.7-0.6-0.9-0.8c-4.4-4.4-8.7-8.5-12.9-12.9
				C782.7,400.8,782.5,400.8,782.5,400.6L782.5,400.6z"/>
			<path class="st1" d="M725,407.4c-1.2,0.9-2.4,1.7-3.4,2.6c-1,0.8-2,1.7-2.9,2.5c-1.5,1.3-2.6,3-3.4,4.9c-0.3,0.8-0.7,1.3-1.2,1.9
				c-0.7,0.8-1.7,0.9-2.6,0.6c-1.4-0.6-2.2-1.5-2.4-3c-0.2-1.3,0.5-2.5,1.9-3c2.7-1.3,5.6-2.6,8.3-4
				C721.2,408.9,723.1,408,725,407.4C725,407.2,725,407.2,725,407.4z"/>
			<path class="st1" d="M758.9,419.7c-1.4-0.2-2.6-0.6-3.4-1.7c-0.5-0.6-0.7-1.3-0.2-1.9c0.3-0.6,0.7-1.1,1.2-1.5
				c0.5-0.6,1.4-0.8,2.2-0.4c1,0.4,2,0.9,2.6,2.1c0.5,0.9,0.5,1.7,0,2.6C760.7,419.7,759.9,419.7,758.9,419.7z"/>
			<path class="st1" d="M715.1,370.5c-0.7-0.4-1.4-0.6-2-1.1c-0.7-0.6-0.7-1.1-0.3-1.7c0.5-0.9,1.2-1.5,2-1.3c0.9,0.2,1.5,0.8,2,1.5
				C717.3,369.2,716.6,370.5,715.1,370.5z"/>
			<path class="st1" d="M786.3,361.1c0,0.8-0.5,1.3-1.4,1.3c-0.7,0-1.2-0.6-1.2-1.3c0-0.8,0.5-1.3,1.2-1.3
				C785.6,359.7,786.3,360.3,786.3,361.1z"/>
			<path class="st1" d="M761.1,348.8c0,0.6-0.3,0.9-1,0.9c-0.9,0-1.7-0.6-1.5-1.1c0-0.6,0.7-1.1,1.2-1.1
				C760.4,347.4,761.1,348.2,761.1,348.8z"/>
		</g>
		<text transform="matrix(0.5047 0 0 1 529.903 417.4209)" class="st2 st3 st4 st5">Csm </text>
	</g>
</g>
</svg>
