<?xml version="1.0" encoding="utf-8"?>
<!-- Generator: Adobe Illustrator 21.0.0, SVG Export Plug-In . SVG Version: 6.00 Build 0)  -->
<svg version="1.1" id="Capa_1" xmlns="http://www.w3.org/2000/svg" xmlns:xlink="http://www.w3.org/1999/xlink" x="0px" y="0px"
	 viewBox="0 0 1366 768" style="enable-background:new 0 0 1366 768;" xml:space="preserve">
<style type="text/css">
	.st0{fill:#FFFF00;}
	.st1{font-family:'ArialNarrow-Italic';}
	.st2{font-size:102.1766px;}
	.st3{letter-spacing:4;}
	.st4{fill:#99FF00;}
</style>
<g>
	<g>
		<path d="M823.1,480.5H542.9c-24.2,0-43.9-19.8-43.9-43.9V331.4c0-24.2,19.8-43.9,43.9-43.9H823c24.2,0,43.9,19.8,43.9,43.9v105.1
			C867,460.7,847.2,480.5,823.1,480.5z"/>
		<g>
			<text transform="matrix(0.5047 0 0 1 529.9031 417.4214)" class="st0 st1 st2 st3">Cristofer </text>
			<g>
				<path class="st4" d="M728.2,356.5c0-0.4,0-0.9,0-1.3c0.7-1.1,1.2-2.3,2-3.2c1.4-1.7,3.1-2.1,5.1-1.3c1.9,0.8,3.2,1.9,4.3,3.6
					c0.5,0.9,0.9,1.9,0.9,2.8c-0.2,2.6-1.5,4.2-4.3,4.2c-2.7,0-4.9-0.9-6.8-2.8C728.9,357.8,728.6,357,728.2,356.5z"/>
				<path class="st4" d="M774.9,438.6c-0.3,0-0.9-0.2-1.2-0.2c-0.9-0.6-1.2-1.3-0.9-2.5c0.2-0.6,0.3-1.1,0.5-1.5
					c2.4-4.7,4.8-9.5,7.2-14.2c0,0,0.2-0.2,0.3-0.2c-0.2,0.9-0.3,1.9-0.5,2.6c-0.5,3.6-1.2,7.2-1.7,10.6c-0.2,0.9-0.5,1.9-0.9,2.6
					C777.1,437.4,776.1,438.2,774.9,438.6z"/>
				<path class="st4" d="M836.1,372.2c0,0.6,0,0.9-0.2,1.5c-0.7,0.9-1.2,1.1-2,0.6c-2.6-1.3-5.3-1.1-8-0.6c-1,0.2-2.2,0.4-3.2,0.6
					c0.2,0,0.2-0.2,0.3-0.2c2.9-1.1,5.8-2.3,8.7-3.4c0.9-0.4,1.9-0.6,2.7-0.2C835.2,370.6,835.6,371.4,836.1,372.2z"/>
				<path class="st4" d="M791.6,333.9c0.3,0,0.7,0,1-0.2c0.5,0.2,1,0.4,1.4,0.8c0.5,0.4,1,0.9,1.2,1.5c0.7,1.5-0.3,3-1.9,3
					c-1.4,0-2.4-0.6-3.4-1.5c-0.5-0.6-0.7-1.3-0.2-1.9C790.4,335.1,791.1,334.5,791.6,333.9z"/>
				<path class="st4" d="M791.6,352.5c0,0.8,0.2,1.5,0.2,2.3c0.2,1.3,0.3,2.6,0.7,3.8c0.2,0.9,0.9,1.9,1.7,2.5s1.9,0.8,2.7,0.2
					c0.9-0.6,1.7-1.1,2.4-2.1c1.9-2.3,3.6-4.5,5.5-6.8c1.4-1.5,2.6-3.2,3.9-4.7c0.5-0.6,1.2-1.1,1.9-1.5c0.9-0.6,1.5-0.4,2.2,0.2
					s0.9,1.3,0.5,2.1c-0.3,0.9-0.9,2.1-1.4,2.8c-1.5,2.1-3.1,4-4.6,5.9c-1.2,1.5-2.6,3.2-3.7,4.7c-0.5,0.8-1,1.7-1.4,2.5
					c-0.3,0.9,0.3,1.9,1.4,1.9c0.5,0,1.2-0.2,1.7-0.6c0.9-0.6,1.7-1.3,2.6-2.1c1-0.8,1.9-1.7,2.9-2.5s1.9-0.8,2.6,0
					c0.9,0.8,0.9,1.7,0.2,2.8c-0.5,0.8-1.2,1.5-1.9,2.1c-0.9,0.8-1.7,1.5-2.4,2.3c-0.3,0.4-0.7,0.8-1,1.1c-1.2,1.7-0.7,3.4,1,4.2
					c1,0.6,2.4,0.8,3.6,0.9c2,0,4.1-0.2,6-0.4c0.3,0,0.5,0,0.9,0v0.2c-0.3,0.2-0.9,0.4-1.2,0.6c-1.5,0.6-3.1,0.9-4.6,1.5
					c-0.9,0.4-1.7,0.8-2.6,1.3c-0.5,0.4-0.9,0.8-1.2,1.3c-0.7,1.1-0.3,2.3,1,2.8c1.4,0.4,2.7,0.8,4.3,0.8c2.4,0.2,4.8,0.2,7.3,0.4
					c2,0.2,4.1,0.4,6.1,0.6c0.5,0,0.9,0.2,1.4,0.4c1,0.6,1.2,1.9,0,2.5c-1,0.4-2,0.8-3.1,0.8c-2.4,0-4.9,0-7.3,0c-2.6,0-4.9,0-7.5,0
					c-0.3,0-0.9,0.2-1.2,0.2c-1.9,0.6-2.6,1.7-2,3.6c0.3,1.3,1.2,2.3,2.2,3c0.9,0.8,1.9,1.3,2.7,2.3c-0.3,0-0.5,0-0.9-0.2
					c-1.2-0.4-2.6-0.8-3.7-1.1c-1.2-0.2-2.4-0.2-3.4,0.2c-1.2,0.6-1.7,1.3-1.2,2.6c0.3,1.3,0.7,2.5,1.4,3.6c2.2,4.2,4.6,8.3,7,12.5
					c1.5,2.8,3.2,5.9,4.8,8.7c0.5,1.1,0.9,2.3,1.2,3.6c0.2,0.6,0,1.1-0.5,1.5s-1.2,0.4-1.7,0c-0.7-0.4-1.2-0.9-1.7-1.5
					c-1-1.3-1.9-2.6-2.9-4c-0.7-0.9-1.5-1.9-2.6-2.8c-0.7-0.8-1.5-0.9-2.6-0.4c-0.7,0.4-1.4,0.2-1.9-0.4c-0.7-0.8-1.4-1.5-1.9-2.3
					c-1-1.7-2-3.6-3.1-5.3c-0.7-1.3-1.5-2.5-2.6-3.6c-0.9-0.9-1.7-1.3-3.1-1.1c-1.2,0.4-1.7,0-2-0.9c-0.5-1.7-2-2.5-3.7-1.5
					c-0.7,0.4-1.4,0.9-1.9,1.7c-1.5,2.1-2.6,4.5-3.2,6.8c-0.3,1.1-0.7,2.3-1,3.2c0,0.2-0.2,0.4-0.2,0.4h-0.2c0-0.4,0-0.9,0-1.3
					c0.3-2.5,0.7-4.7,0.9-7.2c0-1.1,0-2.3-0.3-3.4c-0.5-1.9-2-2.5-3.7-1.3c-1,0.8-1.7,1.7-2.6,2.6c-1.2,1.7-2.4,3.4-3.7,4.9
					c-0.7,0.9-1.5,1.9-2.4,2.6c-0.5,0.4-1,0.9-1.7,1.1c-1.2,0.6-2.2-0.4-2-1.7c0.2-0.8,0.5-1.5,1-2.3c1-1.5,2.2-3,3.2-4.5
					c0.9-1.3,1.7-2.6,2.6-4c0.3-0.6,0.5-1.1,0.7-1.9c0.3-1.1-0.2-2.1-1.4-2.5c-1.4-0.4-2.6-0.2-3.9,0c-2.9,0.8-5.8,1.9-8.3,3.4
					c-0.2,0.2-0.5,0.2-0.7,0.2c0.2-0.2,0.3-0.4,0.7-0.4c1.9-1.5,3.9-3,5.8-4.7c0.9-0.8,1.5-1.7,2-2.6c1-1.9,0.3-3.2-1.7-3.4
					c-2.2-0.4-4.4,0-6.5,0.2c-3.1,0.4-6.3,0.8-9.4,1.1c-1,0.2-2,0-3.1-0.2c-0.3,0-0.7-0.2-0.9-0.4c-1-0.6-1-1.7,0-2.3
					c1-0.6,2.2-0.9,3.4-1.1c3.1-0.6,6.1-0.9,9.2-1.3c1.5-0.2,3.2-0.6,4.8-0.9c0.5-0.2,0.9-0.4,1.4-0.6c1.2-0.8,1.5-1.9,0.3-2.8
					c-0.7-0.6-1.4-1.1-2-1.3c-2.2-0.8-4.4-1.5-6.6-2.3c-1-0.4-2.2-0.8-3.2-1.3c-0.5-0.2-1-0.8-1.5-1.1c-0.5-0.6-0.5-1.1-0.2-1.7
					s0.9-0.8,1.4-0.8c0.9,0,1.7,0.2,2.6,0.4c2.2,0.6,4.4,1.3,6.6,2.1c1,0.2,2.2,0.4,3.2,0.4s1.5-0.6,1.7-1.5c0-0.9-0.2-1.9-0.3-2.8
					c-0.7-2.1-2-4-3.2-5.7c-1-1.3-2.2-2.8-3.2-4.2c0.2,0.2,0.3,0.4,0.5,0.6c1.7,1.3,3.2,2.8,4.9,4.2c0.7,0.6,1.5,1.1,2.4,1.3
					c2.2,0.9,3.9-0.2,4.1-2.6c0-1.1-0.3-2.3-0.9-3.2c-0.5-0.9-1-1.7-1.5-2.5c0.7,0.6,1.5,1.1,2.4,1.7c1.2,0.8,2.6,1.3,3.9,1.5
					c2,0,3.1-0.8,3.1-2.8c0-2.6-0.7-4.9-1-7.6c-0.5-2.5-0.9-4.9-1.4-7.4c-0.2-0.8,0-1.5,0.2-2.3c0.2-0.6,0.5-0.9,1.2-1.1
					s1.2,0.2,1.4,0.8c0.5,0.8,1,1.7,1.2,2.6c0.7,3,1.4,6.1,2,8.9c0.3,1.5,0.9,3,1.4,4.5c1,2.3,2.7,2.3,4.3,0.8
					c1.5-1.3,1.9-3.2,2.2-5.1c0.2-0.6,0.2-1.3,0.3-1.9C791.5,352.5,791.5,352.5,791.6,352.5z"/>
				<path class="st4" d="M768.5,358.4c-0.5-0.8-1.2-1.3-1.5-2.1c-2.6-4.4-6.1-7.9-10.2-11c-0.9-0.8-1.5-1.5-2.2-2.5
					c-1.2-1.9-0.7-4,1-5.1s3.7-0.9,4.9,0.6c0.3,0.6,0.7,1.1,1,1.7c2.4,6.1,4.6,12.1,7,18.2C768.5,358,768.5,358.2,768.5,358.4
					L768.5,358.4z"/>
				<path class="st4" d="M815.1,397.5c1,0.8,2,1.3,3.2,2.1c2.4,1.3,4.6,2.6,7,3.8c1.7,0.8,3.6,1.1,5.5,1.1c0.7,0,1.5,0,2.2,0.2
					c1.9,0.6,2.7,1.9,2.4,3.8c-0.2,1.1-0.9,2.1-1.9,2.8c-1.4,0.9-2.9,1.1-4.3,0c-0.3-0.2-0.7-0.6-0.9-0.8
					c-4.4-4.4-8.7-8.5-12.9-12.9C815.3,397.7,815.1,397.7,815.1,397.5L815.1,397.5z"/>
				<path class="st4" d="M757,404.3c-1.2,0.9-2.4,1.7-3.4,2.6c-1,0.8-2,1.7-2.9,2.5c-1.5,1.3-2.6,3-3.4,4.9
					c-0.3,0.8-0.7,1.3-1.2,1.9c-0.7,0.8-1.7,0.9-2.6,0.6c-1.4-0.6-2.2-1.5-2.4-3c-0.2-1.3,0.5-2.5,1.9-3c2.7-1.3,5.6-2.6,8.3-4
					C753.3,405.8,755.2,404.9,757,404.3C757,404.1,757,404.1,757,404.3z"/>
				<path class="st4" d="M791.5,416.6c-1.4-0.2-2.6-0.6-3.4-1.7c-0.5-0.6-0.7-1.3-0.2-1.9c0.3-0.6,0.7-1.1,1.2-1.5
					c0.5-0.6,1.4-0.8,2.2-0.4c1,0.4,2,0.9,2.6,2.1c0.5,0.9,0.5,1.7,0,2.6C793.3,416.6,792.5,416.6,791.5,416.6z"/>
				<path class="st4" d="M747.7,367.4c-0.7-0.4-1.4-0.6-2-1.1c-0.7-0.6-0.7-1.1-0.3-1.7c0.5-0.9,1.2-1.5,2-1.3
					c0.9,0.2,1.5,0.8,2,1.5C749.9,366.1,749.2,367.4,747.7,367.4z"/>
				<path class="st4" d="M818.9,358c0,0.8-0.5,1.3-1.4,1.3c-0.7,0-1.2-0.6-1.2-1.3c0-0.8,0.5-1.3,1.2-1.3
					C818.2,356.6,818.9,357.2,818.9,358z"/>
				<path class="st4" d="M793.7,345.7c0,0.6-0.3,0.9-1,0.9c-0.9,0-1.7-0.6-1.5-1.1c0-0.6,0.7-1.1,1.2-1.1
					C793,344.3,793.7,345.1,793.7,345.7z"/>
			</g>
		</g>
	</g>
</g>
</svg>
